<?xml version="1.0" encoding="UTF-8" standalone="no"?>
<!-- Created with Inkscape (http://www.inkscape.org/) -->

<svg
   width="896.40002"
   height="232.65039"
   viewBox="0 0 896.40002 232.65039"
   version="1.1"
   id="svg5"
   xml:space="preserve"
   xmlns="http://www.w3.org/2000/svg"
   xmlns:svg="http://www.w3.org/2000/svg"><defs
     id="defs2" /><g
     id="g1465"
     style="display:inline"
     transform="translate(-91.800003,-423.68762)"><g
       aria-label="syamim."
       id="text1463"
       style="font-weight:bold;font-size:247.764px;line-height:1;font-family:'DM Serif Text';-inkscape-font-specification:'DM Serif Text Bold';letter-spacing:-12.894px;fill:#ffffff;stroke-width:11.0952;stroke-linecap:round;paint-order:stroke fill markers"><path
         d="m 131.93777,600.09559 q -11.89267,0 -21.55547,-2.72541 -9.41503,-2.47764 -18.086772,-7.18515 v -29.23615 h 6.689628 l 7.432924,14.12254 q 4.70751,9.16727 10.65385,13.62702 6.1941,4.45976 15.60913,4.45976 11.64491,0 18.5823,-4.95528 6.93739,-5.20305 6.93739,-13.87479 0,-7.92845 -5.20304,-12.88373 -5.20304,-4.95528 -18.5823,-9.16727 l -10.90162,-3.46869 Q 108.89572,544.34869 100.22398,535.42918 91.8,526.26191 91.8,512.63489 q 0,-10.65385 5.698572,-19.32559 5.698568,-8.9195 16.600188,-14.12255 10.90162,-5.20304 26.51075,-5.20304 10.15832,0 18.5823,2.47764 8.67174,2.22987 16.84795,6.44186 l -1.48658,26.51075 h -6.44187 l -7.68068,-14.12255 q -3.96422,-7.92845 -8.17621,-10.90161 -3.96423,-3.22094 -12.3882,-3.22094 -8.91951,0 -15.8569,4.70752 -6.68963,4.45975 -6.68963,12.63597 0,7.68068 5.69857,12.63596 5.69858,4.70752 18.33454,8.9195 l 10.65385,3.22094 q 18.08678,5.69857 25.76746,15.1136 7.68068,9.41503 7.68068,22.54653 0,17.59124 -14.12254,28.49286 -13.87479,10.65385 -39.39448,10.65385 z"
         id="path1554" /><path
         d="m 205.76105,656.33802 q -9.91057,0 -15.60914,-4.70752 -5.69857,-4.70751 -5.69857,-12.3882 0,-6.93739 4.70752,-11.14938 4.95528,-3.96422 10.90161,-3.96422 6.1941,0 10.15833,2.22987 3.96422,2.22988 6.93739,6.44187 l 1.48658,1.98211 q 5.69858,6.93739 10.65386,-0.24776 3.22093,-4.21199 6.1941,-10.40609 3.22093,-6.1941 6.93739,-16.35243 L 195.35496,495.29141 q -1.73435,-4.70751 -3.96423,-7.18515 -2.22987,-2.72541 -6.68963,-4.45976 l -4.21198,-1.48658 v -4.45975 h 61.19771 v 4.45975 l -5.20305,1.48658 q -5.45081,1.73435 -5.94633,5.45081 -0.24777,3.4687 1.73434,9.16727 l 25.27193,65.90523 24.28088,-66.40076 q 1.98211,-5.45081 1.48658,-9.16727 -0.49553,-3.71646 -6.1941,-4.95528 l -5.45081,-1.48658 v -4.45975 h 36.91684 v 4.45975 l -5.45081,1.73435 q -5.45081,1.48658 -7.92845,4.45975 -2.22987,2.7254 -4.21199,8.17621 l -39.64224,106.53853 q -9.91056,27.25404 -20.31665,40.13777 -10.15832,13.13149 -25.27192,13.13149 z"
         style="letter-spacing:0px"
         id="path1556" /><path
         d="m 347.23428,600.09559 q -14.12255,0 -24.03311,-7.92845 -9.6628,-8.17621 -9.6628,-23.28982 0,-11.89267 11.39715,-21.80323 11.64491,-10.15832 36.42131,-14.86584 4.21199,-0.99106 9.66279,-1.73435 5.69858,-0.99105 11.14938,-1.98211 v -17.59124 q 0,-16.84796 -4.21198,-23.28982 -4.21199,-6.44187 -13.37926,-6.44187 h -0.74329 q -5.69857,0 -9.16727,3.71646 -3.22093,3.4687 -4.21199,11.64491 l -0.74329,3.22094 q -0.74329,9.91056 -5.20305,14.61807 -4.45975,4.45975 -11.14938,4.45975 -6.1941,0 -10.40608,-3.71646 -3.96423,-3.96422 -3.96423,-10.15832 0,-10.15833 6.93739,-17.09572 6.9374,-6.93739 18.33454,-10.40609 11.64491,-3.46869 25.02417,-3.46869 22.05099,0 33.6959,10.65385 11.64491,10.65385 11.64491,34.68696 v 55.25138 q 0,10.65385 10.15832,10.65385 h 5.69858 l 2.47764,2.7254 q -4.45976,5.69857 -9.91056,8.67174 -5.45081,3.22093 -14.86585,3.22093 -10.65385,0 -17.09571,-4.95528 -6.1941,-5.20304 -8.17621,-13.62702 -7.92845,8.42398 -15.60914,13.62702 -7.68068,5.20305 -20.06888,5.20305 z m 14.37031,-15.8569 q 4.95528,0 9.41503,-2.22987 4.45976,-2.22988 11.14938,-7.43292 v -39.64225 q -6.44186,0.99106 -13.13149,2.47764 -10.65385,2.47764 -17.34348,9.16727 -6.44186,6.68963 -6.44186,18.08678 0,9.91056 4.45975,14.86584 4.70751,4.70751 11.89267,4.70751 z"
         style="letter-spacing:0px"
         id="path1558" /><path
         d="m 437.91581,596.62689 v -4.95528 l 5.45081,-1.48658 q 3.96423,-1.23882 5.20305,-3.4687 1.23882,-2.47764 1.48658,-6.44186 v -49.05728 q 0,-8.17621 0,-13.87478 0,-5.69857 -0.24776,-13.37926 0,-4.21198 -1.23882,-6.44186 -1.23882,-2.47764 -5.45081,-3.4687 l -5.20305,-1.23882 v -4.45975 l 40.13777,-14.37031 2.97317,2.7254 1.73435,16.60019 q 8.67174,-7.92845 19.32559,-13.62702 10.65385,-5.69857 21.80323,-5.69857 12.3882,0 19.3256,4.95528 6.93739,4.95528 10.65385,15.1136 9.41503,-9.41503 20.81217,-14.61807 11.39715,-5.45081 22.54653,-5.45081 16.84795,0 25.27193,8.42397 8.42397,8.42398 8.42397,26.51075 v 71.6038 q 0,7.92845 6.9374,9.91056 l 4.70751,1.23882 v 4.95528 h -55.7469 v -4.95528 l 4.45975,-1.23882 q 6.68963,-2.22987 6.68963,-10.15832 v -72.59486 q 0,-10.65385 -3.96422,-14.37031 -3.71646,-3.96422 -12.3882,-3.96422 -6.68963,0 -12.63597,2.7254 -5.94633,2.7254 -13.13149,8.42398 1.48658,7.43292 1.48658,17.09571 v 62.93206 q 0.24777,4.21199 1.48659,6.68963 1.48658,2.22988 5.45081,3.22093 l 4.21198,1.23882 v 4.95528 h -55.99466 v -4.95528 l 5.20304,-1.48658 q 3.96423,-1.23882 5.20305,-3.4687 1.48658,-2.47764 1.48658,-6.44186 v -72.34709 q 0,-10.15833 -3.71646,-14.37032 -3.71646,-4.21198 -12.63596,-4.21198 -11.39715,0 -24.52864,10.90161 v 80.27554 q 0,8.17621 6.93739,9.91056 l 4.21199,1.23882 v 4.95528 z"
         style="letter-spacing:0px"
         id="path1560" /><path
         d="m 681.46799,460.35669 q -8.17621,0 -13.87478,-5.20305 -5.69858,-5.20304 -5.69858,-13.13149 0,-8.17621 5.69858,-13.13149 5.69857,-5.20305 13.87478,-5.20305 8.17621,0 13.87479,5.20305 5.69857,4.95528 5.69857,13.13149 0,7.92845 -5.69857,13.13149 -5.69858,5.20305 -13.87479,5.20305 z m -28.49286,136.2702 v -4.70751 l 3.71646,-0.99106 q 4.95528,-1.48658 6.68963,-4.45975 1.73435,-2.97317 1.98211,-7.92845 v -45.58858 q 0,-7.68068 0,-14.12255 0,-6.68962 -0.24776,-13.62702 0,-4.95528 -1.98212,-7.68068 -1.73434,-2.97317 -6.68962,-3.96423 l -3.4687,-0.74329 v -4.45975 l 43.3587,-14.37031 2.97317,2.7254 -0.74329,35.18249 v 66.89628 q 0,4.95528 1.73435,7.92845 1.98211,2.97317 6.68962,4.45975 l 2.72541,0.7433 v 4.70751 z"
         style="letter-spacing:0px"
         id="path1562" /><path
         d="m 720.61476,596.62689 v -4.95528 l 5.4508,-1.48658 q 3.96423,-1.23882 5.20305,-3.4687 1.23882,-2.47764 1.48658,-6.44186 v -49.05728 q 0,-8.17621 0,-13.87478 0,-5.69857 -0.24776,-13.37926 0,-4.21198 -1.23882,-6.44186 -1.23882,-2.47764 -5.45081,-3.4687 l -5.20304,-1.23882 v -4.45975 l 40.13777,-14.37031 2.97316,2.7254 1.73435,16.60019 q 8.67174,-7.92845 19.32559,-13.62702 10.65386,-5.69857 21.80324,-5.69857 12.3882,0 19.32559,4.95528 6.93739,4.95528 10.65385,15.1136 9.41503,-9.41503 20.81218,-14.61807 11.39714,-5.45081 22.54652,-5.45081 16.84796,0 25.27193,8.42397 8.42398,8.42398 8.42398,26.51075 v 71.6038 q 0,7.92845 6.93739,9.91056 l 4.70752,1.23882 v 4.95528 h -55.7469 v -4.95528 l 4.45975,-1.23882 q 6.68963,-2.22987 6.68963,-10.15832 v -72.59486 q 0,-10.65385 -3.96423,-14.37031 -3.71646,-3.96422 -12.3882,-3.96422 -6.68963,0 -12.63596,2.7254 -5.94634,2.7254 -13.1315,8.42398 1.48659,7.43292 1.48659,17.09571 v 62.93206 q 0.24776,4.21199 1.48658,6.68963 1.48659,2.22988 5.45081,3.22093 l 4.21199,1.23882 v 4.95528 h -55.99467 v -4.95528 l 5.20305,-1.48658 q 3.96422,-1.23882 5.20304,-3.4687 1.48659,-2.47764 1.48659,-6.44186 v -72.34709 q 0,-10.15833 -3.71646,-14.37032 -3.71646,-4.21198 -12.63597,-4.21198 -11.39714,0 -24.52864,10.90161 v 80.27554 q 0,8.17621 6.9374,9.91056 l 4.21198,1.23882 v 4.95528 z"
         style="letter-spacing:0px"
         id="path1564" /><path
         d="m 967.38784,600.09559 q -8.67174,0 -14.86584,-5.94634 -5.94634,-5.94633 -5.94634,-14.37031 0,-8.67174 5.94634,-14.86584 6.1941,-6.1941 14.86584,-6.1941 8.67174,0 14.61807,6.1941 6.1941,6.1941 6.1941,14.86584 0,8.42398 -6.1941,14.37031 -5.94633,5.94634 -14.61807,5.94634 z"
         id="path1566" /></g></g></svg>
