<svg xmlns="http://www.w3.org/2000/svg" viewBox="0 0 597.60168 533.68652">
  <style>
    path { fill: #1a1a1a; }
    @media (prefers-color-scheme: dark) {
      path { fill: #ffffff; }
    }
  </style>
  <g transform="translate(-304.32996,-273.15674)">
    <path d="m 474.18695,806.84325 q -50.328,0 -91.2195,-11.5335 -39.843,-10.485 -76.5405,-30.4065 v -123.723 h 28.3095 l 31.455,59.7645 q 19.9215,38.7945 45.0855,57.6675 26.2125,18.873 66.0555,18.873 49.2795,0 78.6375,-20.97 29.358,-22.0185 29.358,-58.716 0,-33.552 -22.0185,-54.522 -22.0185,-20.97 -78.6375,-38.7945 l -46.134,-14.679 q -61.8615,-18.873 -98.559,-56.619 -35.649,-38.7945 -35.649,-96.462 0,-45.0855 24.1155,-81.783 24.1155,-37.746 70.2495,-59.7645 46.134,-22.0185 112.1895,-22.0185 42.9885,0 78.6375,10.485 36.6975,9.4365 71.298,27.261 l -6.291,112.1895 h -27.261 l -32.5035,-59.7645 q -16.776,-33.552 -34.6005,-46.134 -16.776,-13.6305 -52.425,-13.6305 -37.746,0 -67.104,19.9215 -28.3095,18.873 -28.3095,53.4735 0,32.5035 24.1155,53.4735 24.1155,19.9215 77.589,37.746 l 45.0855,13.6305 q 76.5405,24.1155 109.044,63.9585 32.5035,39.843 32.5035,95.4135 0,74.4435 -59.7645,120.5775 -58.716,45.0855 -166.7115,45.0855 z"/>
    <path d="m 813.85764,806.84325 q -36.6975,0 -62.91,-25.164 -25.164,-25.164 -25.164,-60.813 0,-36.6975 25.164,-62.91 26.2125,-26.2125 62.91,-26.2125 36.6975,0 61.8615,26.2125 26.2125,26.2125 26.2125,62.91 0,35.649 -26.2125,60.813 -25.164,25.164 -61.8615,25.164 z"/>
  </g>
</svg>
