<?xml version="1.0" encoding="UTF-8" standalone="no"?>
<!-- Created with Inkscape (http://www.inkscape.org/) -->

<svg
   width="896.40002"
   height="331.87344"
   viewBox="0 0 896.40002 331.87344"
   version="1.1"
   id="svg5"
   xml:space="preserve"
   xmlns="http://www.w3.org/2000/svg"
   xmlns:svg="http://www.w3.org/2000/svg"><defs
     id="defs2" /><g
     id="layer1"
     style="display:none"
     transform="translate(-91.799995,-374.06332)"><rect
       style="display:inline;fill:#ffffff;fill-opacity:1;stroke-width:4.299;stroke-linecap:round;paint-order:stroke fill markers"
       id="rect3518"
       width="1080"
       height="1080"
       x="0"
       y="0" /><g
       aria-label="s."
       id="text556"
       style="font-weight:bold;font-size:1048.5px;line-height:1;font-family:'DM Serif Text';-inkscape-font-specification:'DM Serif Text Bold';letter-spacing:-54.5654px;fill:#1a1a1a;stroke-width:46.9532;stroke-linecap:round;paint-order:stroke fill markers"><path
         d="m 474.18695,806.84325 q -50.328,0 -91.2195,-11.5335 -39.843,-10.485 -76.5405,-30.4065 v -123.723 h 28.3095 l 31.455,59.7645 q 19.9215,38.7945 45.0855,57.6675 26.2125,18.873 66.0555,18.873 49.2795,0 78.6375,-20.97 29.358,-22.0185 29.358,-58.716 0,-33.552 -22.0185,-54.522 -22.0185,-20.97 -78.6375,-38.7945 l -46.134,-14.679 q -61.8615,-18.873 -98.559,-56.619 -35.649,-38.7945 -35.649,-96.462 0,-45.0855 24.1155,-81.783 24.1155,-37.746 70.2495,-59.7645 46.134,-22.0185 112.1895,-22.0185 42.9885,0 78.6375,10.485 36.6975,9.4365 71.298,27.261 l -6.291,112.1895 h -27.261 l -32.5035,-59.7645 q -16.776,-33.552 -34.6005,-46.134 -16.776,-13.6305 -52.425,-13.6305 -37.746,0 -67.104,19.9215 -28.3095,18.873 -28.3095,53.4735 0,32.5035 24.1155,53.4735 24.1155,19.9215 77.589,37.746 l 45.0855,13.6305 q 76.5405,24.1155 109.044,63.9585 32.5035,39.843 32.5035,95.4135 0,74.4435 -59.7645,120.5775 -58.716,45.0855 -166.7115,45.0855 z"
         id="path834" /><path
         d="m 813.85764,806.84325 q -36.6975,0 -62.91,-25.164 -25.164,-25.164 -25.164,-60.813 0,-36.6975 25.164,-62.91 26.2125,-26.2125 62.91,-26.2125 36.6975,0 61.8615,26.2125 26.2125,26.2125 26.2125,62.91 0,35.649 -26.2125,60.813 -25.164,25.164 -61.8615,25.164 z"
         id="path836" /></g></g><g
     id="g1230"
     style="display:none"
     transform="translate(-91.799995,-374.06332)"><g
       aria-label="syamim."
       id="text1228"
       style="font-weight:bold;font-size:247.764px;line-height:1;font-family:'DM Serif Text';-inkscape-font-specification:'DM Serif Text Bold';letter-spacing:-12.894px;display:inline;fill:#1a1a1a;stroke-width:11.0952;stroke-linecap:round;paint-order:stroke fill markers"><path
         d="m 131.93777,600.09559 q -11.89267,0 -21.55547,-2.72541 -9.41503,-2.47764 -18.086772,-7.18515 v -29.23615 h 6.689628 l 7.432924,14.12254 q 4.70751,9.16727 10.65385,13.62702 6.1941,4.45976 15.60913,4.45976 11.64491,0 18.5823,-4.95528 6.93739,-5.20305 6.93739,-13.87479 0,-7.92845 -5.20304,-12.88373 -5.20304,-4.95528 -18.5823,-9.16727 l -10.90162,-3.46869 Q 108.89572,544.34869 100.22398,535.42918 91.8,526.26191 91.8,512.63489 q 0,-10.65385 5.698572,-19.32559 5.698568,-8.9195 16.600188,-14.12255 10.90162,-5.20304 26.51075,-5.20304 10.15832,0 18.5823,2.47764 8.67174,2.22987 16.84795,6.44186 l -1.48658,26.51075 h -6.44187 l -7.68068,-14.12255 q -3.96422,-7.92845 -8.17621,-10.90161 -3.96423,-3.22094 -12.3882,-3.22094 -8.91951,0 -15.8569,4.70752 -6.68963,4.45975 -6.68963,12.63597 0,7.68068 5.69857,12.63596 5.69858,4.70752 18.33454,8.9195 l 10.65385,3.22094 q 18.08678,5.69857 25.76746,15.1136 7.68068,9.41503 7.68068,22.54653 0,17.59124 -14.12254,28.49286 -13.87479,10.65385 -39.39448,10.65385 z"
         id="path1186" /><path
         d="m 205.76105,656.33802 q -9.91057,0 -15.60914,-4.70752 -5.69857,-4.70751 -5.69857,-12.3882 0,-6.93739 4.70752,-11.14938 4.95528,-3.96422 10.90161,-3.96422 6.1941,0 10.15833,2.22987 3.96422,2.22988 6.93739,6.44187 l 1.48658,1.98211 q 5.69858,6.93739 10.65386,-0.24776 3.22093,-4.21199 6.1941,-10.40609 3.22093,-6.1941 6.93739,-16.35243 L 195.35496,495.29141 q -1.73435,-4.70751 -3.96423,-7.18515 -2.22987,-2.72541 -6.68963,-4.45976 l -4.21198,-1.48658 v -4.45975 h 61.19771 v 4.45975 l -5.20305,1.48658 q -5.45081,1.73435 -5.94633,5.45081 -0.24777,3.4687 1.73434,9.16727 l 25.27193,65.90523 24.28088,-66.40076 q 1.98211,-5.45081 1.48658,-9.16727 -0.49553,-3.71646 -6.1941,-4.95528 l -5.45081,-1.48658 v -4.45975 h 36.91684 v 4.45975 l -5.45081,1.73435 q -5.45081,1.48658 -7.92845,4.45975 -2.22987,2.7254 -4.21199,8.17621 l -39.64224,106.53853 q -9.91056,27.25404 -20.31665,40.13777 -10.15832,13.13149 -25.27192,13.13149 z"
         style="letter-spacing:0px"
         id="path1188" /><path
         d="m 347.23428,600.09559 q -14.12255,0 -24.03311,-7.92845 -9.6628,-8.17621 -9.6628,-23.28982 0,-11.89267 11.39715,-21.80323 11.64491,-10.15832 36.42131,-14.86584 4.21199,-0.99106 9.66279,-1.73435 5.69858,-0.99105 11.14938,-1.98211 v -17.59124 q 0,-16.84796 -4.21198,-23.28982 -4.21199,-6.44187 -13.37926,-6.44187 h -0.74329 q -5.69857,0 -9.16727,3.71646 -3.22093,3.4687 -4.21199,11.64491 l -0.74329,3.22094 q -0.74329,9.91056 -5.20305,14.61807 -4.45975,4.45975 -11.14938,4.45975 -6.1941,0 -10.40608,-3.71646 -3.96423,-3.96422 -3.96423,-10.15832 0,-10.15833 6.93739,-17.09572 6.9374,-6.93739 18.33454,-10.40609 11.64491,-3.46869 25.02417,-3.46869 22.05099,0 33.6959,10.65385 11.64491,10.65385 11.64491,34.68696 v 55.25138 q 0,10.65385 10.15832,10.65385 h 5.69858 l 2.47764,2.7254 q -4.45976,5.69857 -9.91056,8.67174 -5.45081,3.22093 -14.86585,3.22093 -10.65385,0 -17.09571,-4.95528 -6.1941,-5.20304 -8.17621,-13.62702 -7.92845,8.42398 -15.60914,13.62702 -7.68068,5.20305 -20.06888,5.20305 z m 14.37031,-15.8569 q 4.95528,0 9.41503,-2.22987 4.45976,-2.22988 11.14938,-7.43292 v -39.64225 q -6.44186,0.99106 -13.13149,2.47764 -10.65385,2.47764 -17.34348,9.16727 -6.44186,6.68963 -6.44186,18.08678 0,9.91056 4.45975,14.86584 4.70751,4.70751 11.89267,4.70751 z"
         style="letter-spacing:0px"
         id="path1190" /><path
         d="m 437.91581,596.62689 v -4.95528 l 5.45081,-1.48658 q 3.96423,-1.23882 5.20305,-3.4687 1.23882,-2.47764 1.48658,-6.44186 v -49.05728 q 0,-8.17621 0,-13.87478 0,-5.69857 -0.24776,-13.37926 0,-4.21198 -1.23882,-6.44186 -1.23882,-2.47764 -5.45081,-3.4687 l -5.20305,-1.23882 v -4.45975 l 40.13777,-14.37031 2.97317,2.7254 1.73435,16.60019 q 8.67174,-7.92845 19.32559,-13.62702 10.65385,-5.69857 21.80323,-5.69857 12.3882,0 19.3256,4.95528 6.93739,4.95528 10.65385,15.1136 9.41503,-9.41503 20.81217,-14.61807 11.39715,-5.45081 22.54653,-5.45081 16.84795,0 25.27193,8.42397 8.42397,8.42398 8.42397,26.51075 v 71.6038 q 0,7.92845 6.9374,9.91056 l 4.70751,1.23882 v 4.95528 h -55.7469 v -4.95528 l 4.45975,-1.23882 q 6.68963,-2.22987 6.68963,-10.15832 v -72.59486 q 0,-10.65385 -3.96422,-14.37031 -3.71646,-3.96422 -12.3882,-3.96422 -6.68963,0 -12.63597,2.7254 -5.94633,2.7254 -13.13149,8.42398 1.48658,7.43292 1.48658,17.09571 v 62.93206 q 0.24777,4.21199 1.48659,6.68963 1.48658,2.22988 5.45081,3.22093 l 4.21198,1.23882 v 4.95528 h -55.99466 v -4.95528 l 5.20304,-1.48658 q 3.96423,-1.23882 5.20305,-3.4687 1.48658,-2.47764 1.48658,-6.44186 v -72.34709 q 0,-10.15833 -3.71646,-14.37032 -3.71646,-4.21198 -12.63596,-4.21198 -11.39715,0 -24.52864,10.90161 v 80.27554 q 0,8.17621 6.93739,9.91056 l 4.21199,1.23882 v 4.95528 z"
         style="letter-spacing:0px"
         id="path1192" /><path
         d="m 681.46799,460.35669 q -8.17621,0 -13.87478,-5.20305 -5.69858,-5.20304 -5.69858,-13.13149 0,-8.17621 5.69858,-13.13149 5.69857,-5.20305 13.87478,-5.20305 8.17621,0 13.87479,5.20305 5.69857,4.95528 5.69857,13.13149 0,7.92845 -5.69857,13.13149 -5.69858,5.20305 -13.87479,5.20305 z m -28.49286,136.2702 v -4.70751 l 3.71646,-0.99106 q 4.95528,-1.48658 6.68963,-4.45975 1.73435,-2.97317 1.98211,-7.92845 v -45.58858 q 0,-7.68068 0,-14.12255 0,-6.68962 -0.24776,-13.62702 0,-4.95528 -1.98212,-7.68068 -1.73434,-2.97317 -6.68962,-3.96423 l -3.4687,-0.74329 v -4.45975 l 43.3587,-14.37031 2.97317,2.7254 -0.74329,35.18249 v 66.89628 q 0,4.95528 1.73435,7.92845 1.98211,2.97317 6.68962,4.45975 l 2.72541,0.7433 v 4.70751 z"
         style="letter-spacing:0px"
         id="path1194" /><path
         d="m 720.61476,596.62689 v -4.95528 l 5.4508,-1.48658 q 3.96423,-1.23882 5.20305,-3.4687 1.23882,-2.47764 1.48658,-6.44186 v -49.05728 q 0,-8.17621 0,-13.87478 0,-5.69857 -0.24776,-13.37926 0,-4.21198 -1.23882,-6.44186 -1.23882,-2.47764 -5.45081,-3.4687 l -5.20304,-1.23882 v -4.45975 l 40.13777,-14.37031 2.97316,2.7254 1.73435,16.60019 q 8.67174,-7.92845 19.32559,-13.62702 10.65386,-5.69857 21.80324,-5.69857 12.3882,0 19.32559,4.95528 6.93739,4.95528 10.65385,15.1136 9.41503,-9.41503 20.81218,-14.61807 11.39714,-5.45081 22.54652,-5.45081 16.84796,0 25.27193,8.42397 8.42398,8.42398 8.42398,26.51075 v 71.6038 q 0,7.92845 6.93739,9.91056 l 4.70752,1.23882 v 4.95528 h -55.7469 v -4.95528 l 4.45975,-1.23882 q 6.68963,-2.22987 6.68963,-10.15832 v -72.59486 q 0,-10.65385 -3.96423,-14.37031 -3.71646,-3.96422 -12.3882,-3.96422 -6.68963,0 -12.63596,2.7254 -5.94634,2.7254 -13.1315,8.42398 1.48659,7.43292 1.48659,17.09571 v 62.93206 q 0.24776,4.21199 1.48658,6.68963 1.48659,2.22988 5.45081,3.22093 l 4.21199,1.23882 v 4.95528 h -55.99467 v -4.95528 l 5.20305,-1.48658 q 3.96422,-1.23882 5.20304,-3.4687 1.48659,-2.47764 1.48659,-6.44186 v -72.34709 q 0,-10.15833 -3.71646,-14.37032 -3.71646,-4.21198 -12.63597,-4.21198 -11.39714,0 -24.52864,10.90161 v 80.27554 q 0,8.17621 6.9374,9.91056 l 4.21198,1.23882 v 4.95528 z"
         style="letter-spacing:0px"
         id="path1196" /><path
         d="m 967.38784,600.09559 q -8.67174,0 -14.86584,-5.94634 -5.94634,-5.94633 -5.94634,-14.37031 0,-8.67174 5.94634,-14.86584 6.1941,-6.1941 14.86584,-6.1941 8.67174,0 14.61807,6.1941 6.1941,6.1941 6.1941,14.86584 0,8.42398 -6.1941,14.37031 -5.94633,5.94634 -14.61807,5.94634 z"
         id="path1198" /></g></g><g
     id="g2732"
     style="display:inline"
     transform="translate(-91.799995,-374.06332)"><g
       aria-label="sym."
       id="text2730"
       style="font-weight:bold;font-size:450.915px;line-height:1;font-family:'DM Serif Text';-inkscape-font-specification:'DM Serif Text Bold';letter-spacing:-23.4663px;display:inline;fill:#1a1a1a;stroke-width:20.1926;stroke-linecap:round;paint-order:stroke fill markers"><path
         d="m 164.84822,603.57905 q -21.64392,0 -39.2296,-4.96007 -17.13477,-4.50915 -32.916797,-13.07653 v -53.20798 h 12.174707 l 13.52745,25.70216 q 8.56738,16.68385 19.38934,24.80033 11.27288,8.11647 28.40765,8.11647 21.193,0 33.81862,-9.0183 12.62562,-9.46922 12.62562,-25.25125 0,-14.42928 -9.46921,-23.44758 -9.46922,-9.0183 -33.81863,-16.68385 l -19.84026,-6.31281 q -26.60398,-8.11647 -42.38601,-24.34941 -15.331107,-16.68386 -15.331107,-41.48418 0,-19.38935 10.371047,-35.17137 10.37104,-16.23294 30.2113,-25.70216 19.84026,-9.46921 48.24791,-9.46921 18.48751,0 33.81862,4.50915 15.78203,4.05823 30.66223,11.72379 l -2.70549,48.2479 H 230.68182 L 216.70345,412.842 q -7.21464,-14.42928 -14.8802,-19.84026 -7.21464,-5.8619 -22.54575,-5.8619 -16.23294,0 -28.85856,8.56739 -12.1747,8.11647 -12.1747,22.99666 0,13.97837 10.37104,22.99667 10.37105,8.56738 33.36771,16.23294 l 19.38935,5.86189 q 32.9168,10.37105 46.89516,27.50582 13.97837,17.13477 13.97837,41.03326 0,32.01497 -25.70216,51.85523 -25.25124,19.38935 -71.69549,19.38935 z"
         id="path1357" /><path
         d="m 299.20194,705.93675 q -18.0366,0 -28.40765,-8.56738 -10.37104,-8.56739 -10.37104,-22.54575 0,-12.62562 8.56738,-20.29118 9.0183,-7.21464 19.84026,-7.21464 11.27288,0 18.48752,4.05824 7.21464,4.05823 12.62562,11.72379 l 2.70549,3.60732 q 10.37104,12.62562 19.38934,-0.45092 5.8619,-7.66555 11.27288,-18.93843 5.86189,-11.27287 12.62562,-29.76039 L 280.26351,412.842 q -3.15641,-8.56739 -7.21464,-13.07654 -4.05824,-4.96006 -12.17471,-8.11647 l -7.66555,-2.70549 v -8.11647 h 111.376 v 8.11647 l -9.46921,2.70549 q -9.92013,3.15641 -10.82196,9.92013 -0.45092,6.31281 3.1564,16.68386 l 45.99333,119.94339 44.18967,-120.84522 q 3.60732,-9.92013 2.70549,-16.68386 -0.90183,-6.76372 -11.27287,-9.0183 l -9.92013,-2.70549 v -8.11647 h 67.18633 v 8.11647 l -9.92013,3.15641 q -9.92013,2.70549 -14.42928,8.11647 -4.05823,4.96006 -7.66555,14.88019 l -72.1464,193.89346 q -18.0366,49.60065 -36.97503,73.04823 -18.48752,23.89849 -45.99333,23.89849 z"
         style="letter-spacing:0px"
         id="path1359" /><path
         d="m 501.21154,597.26624 v -9.0183 l 9.92013,-2.70549 q 7.21464,-2.25458 9.46922,-6.31281 2.25457,-4.50916 2.70549,-11.7238 v -89.28117 q 0,-14.88019 0,-25.25124 0,-10.37104 -0.45092,-24.34941 0,-7.66555 -2.25457,-11.72379 -2.25458,-4.50915 -9.92013,-6.31281 l -9.46922,-2.25457 v -8.11647 l 73.04823,-26.15307 5.41098,4.96006 3.15641,30.21131 q 15.78202,-14.42928 35.17137,-24.80033 19.38934,-10.37104 39.68052,-10.37104 22.54575,0 35.17137,9.0183 12.62562,9.0183 19.38934,27.50581 17.13477,-17.13477 37.87686,-26.60398 20.7421,-9.92013 41.03327,-9.92013 30.66222,0 45.99333,15.33111 15.33111,15.33111 15.33111,48.2479 v 130.31444 q 0,14.42928 12.62562,18.0366 l 8.56739,2.25458 v 9.0183 H 772.21146 v -9.0183 l 8.11647,-2.25458 q 12.17471,-4.05823 12.17471,-18.48752 V 435.38775 q 0,-19.38935 -7.21464,-26.15307 -6.76373,-7.21464 -22.54576,-7.21464 -12.1747,0 -22.99666,4.96006 -10.82196,4.96007 -23.8985,15.33111 2.70549,13.52745 2.70549,31.11314 v 114.53241 q 0.45092,7.66555 2.70549,12.17471 2.70549,4.05823 9.92013,5.86189 l 7.66556,2.25458 v 9.0183 H 636.93696 v -9.0183 l 9.46921,-2.70549 q 7.21464,-2.25458 9.46922,-6.31281 2.70549,-4.50916 2.70549,-11.7238 V 435.83866 q 0,-18.48751 -6.76373,-26.15307 -6.76372,-7.66555 -22.99666,-7.66555 -20.74209,0 -44.64059,19.84026 v 146.09646 q 0,14.8802 12.62562,18.0366 l 7.66556,2.25458 v 9.0183 z"
         style="letter-spacing:0px"
         id="path1361" /><path
         d="m 950.32315,603.57905 q -15.78203,0 -27.0549,-10.82196 -10.82196,-10.82196 -10.82196,-26.15308 0,-15.78202 10.82196,-27.0549 11.27287,-11.27287 27.0549,-11.27287 15.78202,0 26.60398,11.27287 11.27288,11.27288 11.27288,27.0549 0,15.33112 -11.27288,26.15308 -10.82196,10.82196 -26.60398,10.82196 z"
         id="path1363" /></g></g><g
     id="g894"
     style="display:none"
     transform="translate(-91.799995,-374.06332)"><rect
       style="display:inline;fill:#1a1a1a;fill-opacity:1;stroke-width:4.299;stroke-linecap:round;paint-order:stroke fill markers"
       id="rect888"
       width="1080"
       height="1080"
       x="0"
       y="0" /><text
       xml:space="preserve"
       style="font-weight:bold;font-size:1048.5px;line-height:1;font-family:'DM Serif Text';-inkscape-font-specification:'DM Serif Text Bold';letter-spacing:-54.5654px;fill:#ffffff;fill-opacity:1;stroke-width:46.9532;stroke-linecap:round;paint-order:stroke fill markers"
       x="270.77795"
       y="792.16425"
       id="text892"><tspan
         id="tspan890"
         x="270.77795"
         y="792.16425"
         style="fill:#ffffff;fill-opacity:1;stroke-width:46.9532">s.</tspan></text></g><g
     id="g1465"
     style="display:none"
     transform="translate(-91.799995,-374.06332)"><text
       xml:space="preserve"
       style="font-weight:bold;font-size:247.764px;line-height:1;font-family:'DM Serif Text';-inkscape-font-specification:'DM Serif Text Bold';letter-spacing:-12.894px;fill:#ffffff;fill-opacity:1;stroke-width:11.0952;stroke-linecap:round;paint-order:stroke fill markers"
       x="83.871552"
       y="596.62689"
       id="text1463"><tspan
         id="tspan1461"
         x="83.871552"
         y="596.62689"
         style="fill:#ffffff;fill-opacity:1;stroke-width:11.0952">s<tspan
   style="letter-spacing:0px;fill:#ffffff;fill-opacity:1;stroke-width:11.0952"
   id="tspan1459">yamim</tspan>.</tspan></text></g><g
     id="g3557"
     style="display:none"
     transform="translate(-91.799995,-374.06332)"><text
       xml:space="preserve"
       style="font-weight:bold;font-size:450.915px;line-height:1;font-family:'DM Serif Text';-inkscape-font-specification:'DM Serif Text Bold';letter-spacing:-23.4663px;display:inline;fill:#000000;fill-opacity:1;stroke-width:20.1926;stroke-linecap:round;paint-order:stroke fill markers"
       x="77.370712"
       y="597.26624"
       id="text3555"><tspan
         id="tspan3553"
         x="77.370712"
         y="597.26624"
         style="fill:#ffffff;fill-opacity:1;stroke-width:20.1926">s<tspan
   style="letter-spacing:0px;fill:#ffffff;fill-opacity:1;stroke-width:20.1926"
   id="tspan3551">ym</tspan>.</tspan></text></g></svg>
